<svg width="1fr" height="1fr" viewBox="0 0 131 57" fill="none" xmlns="http://www.w3.org/2000/svg">
<path d="M24.2692 2.448C24.1732 2.304 24.0292 2.088 23.8372 1.8C23.6932 1.464 23.6692 1.248 23.7652 1.152C23.8612 1.056 24.0052 1.08 24.1972 1.224C24.4372 1.368 24.5812 1.464 24.6292 1.512C25.4932 2.136 26.2852 3 27.0052 4.104C27.7732 5.208 28.4452 6.432 29.0212 7.776C29.6452 9.072 30.1972 10.44 30.6772 11.88C31.1572 13.32 31.5412 14.688 31.8292 15.984C32.5492 19.152 33.1492 22.272 33.6292 25.344C34.1572 28.416 34.4212 31.584 34.4212 34.848C34.4212 34.944 34.4212 35.232 34.4212 35.712C34.4692 36.192 34.3972 36.48 34.2052 36.576C34.0612 36.48 33.8932 36.24 33.7012 35.856C33.5572 35.472 33.4612 35.208 33.4132 35.064C32.8372 33.288 32.3092 31.272 31.8292 29.016C31.3972 26.712 30.9892 24.624 30.6052 22.752C30.3172 21.312 30.0532 19.944 29.8132 18.648C29.5732 17.304 29.2852 16.008 28.9492 14.76C28.6612 13.512 28.3012 12.264 27.8692 11.016C27.4852 9.72 27.0052 8.376 26.4292 6.984C26.3332 6.792 26.1652 6.456 25.9252 5.976C25.7332 5.496 25.5172 5.016 25.2772 4.536C25.0372 4.056 24.8212 3.624 24.6292 3.24C24.4372 2.808 24.3172 2.544 24.2692 2.448ZM41.5492 55.8C41.0212 55.512 40.6612 55.32 40.4692 55.224C40.2772 55.176 39.9172 54.984 39.3892 54.648C38.2372 53.976 37.1812 53.112 36.2212 52.056C35.2612 50.952 34.3972 49.752 33.6292 48.456C32.8612 47.16 32.1652 45.792 31.5412 44.352C30.9652 42.864 30.4612 41.4 30.0292 39.96C29.0692 40.584 27.9172 40.968 26.5732 41.112C25.2772 41.208 24.0772 41.256 22.9732 41.256C21.5812 41.256 20.1892 41.208 18.7972 41.112C17.4532 41.016 16.0852 40.968 14.6932 40.968C13.3492 43.464 12.0772 45.888 10.8772 48.24C9.72516 50.544 8.81316 52.704 8.14116 54.72C8.14116 54.768 8.11716 54.864 8.06916 55.008C8.02116 55.2 7.94916 55.296 7.85316 55.296C7.70916 55.296 7.63715 55.128 7.63715 54.792C7.63715 54.456 7.63715 54.24 7.63715 54.144C7.63715 52.224 8.09316 50.088 9.00516 47.736C9.96516 45.336 11.0212 42.984 12.1732 40.68L11.0932 40.608C10.8052 41.28 10.3972 42.216 9.86916 43.416C9.38916 44.616 8.90915 45.864 8.42915 47.16C7.99715 48.456 7.58915 49.704 7.20515 50.904C6.86915 52.104 6.70116 53.064 6.70116 53.784C6.70116 53.928 6.62915 54 6.48515 54C6.29315 54 6.14915 53.856 6.05315 53.568C5.95715 53.232 5.86116 52.872 5.76516 52.488C5.71716 52.104 5.66915 51.72 5.62115 51.336C5.62115 50.904 5.62115 50.616 5.62115 50.472C5.62115 48.792 5.83716 47.04 6.26916 45.216C6.70116 43.344 7.27715 41.64 7.99715 40.104L7.06116 39.96C6.62916 41.016 6.22116 42.072 5.83716 43.128C5.45316 44.136 5.11715 45.192 4.82915 46.296C4.82915 46.392 4.80516 46.512 4.75716 46.656C4.70916 46.8 4.63715 46.848 4.54115 46.8C4.44515 46.608 4.37316 46.392 4.32516 46.152C4.32516 45.864 4.32516 45.624 4.32516 45.432C4.32516 43.416 4.68516 41.472 5.40516 39.6C5.64516 39.12 5.88516 38.88 6.12516 38.88C7.13316 38.592 8.14115 38.424 9.14915 38.376C10.2052 38.328 11.2852 38.304 12.3892 38.304C14.7892 38.304 17.1652 38.496 19.5172 38.88C21.8692 39.216 24.2212 39.384 26.5732 39.384C27.7252 39.384 28.7812 39.288 29.7412 39.096L29.5972 37.944C29.0692 38.088 28.4932 38.184 27.8692 38.232C27.2932 38.28 26.7412 38.304 26.2132 38.304C24.3412 38.304 22.3972 38.112 20.3812 37.728C18.4132 37.344 16.5172 36.888 14.6932 36.36C14.5972 36.264 14.4052 36.192 14.1172 36.144C13.8292 36.048 13.6852 35.928 13.6852 35.784C13.6852 35.688 13.8292 35.616 14.1172 35.568C14.4052 35.472 14.5972 35.424 14.6932 35.424C15.3652 35.376 16.0132 35.352 16.6372 35.352C17.3092 35.304 17.9812 35.28 18.6532 35.28C19.7572 35.28 20.8612 35.304 21.9652 35.352C23.0692 35.352 24.1972 35.352 25.3492 35.352C25.9252 35.352 26.5252 35.352 27.1492 35.352C27.7732 35.352 28.3732 35.328 28.9492 35.28L28.8052 34.488H27.8692C25.5652 34.488 23.2612 34.272 20.9572 33.84C18.7012 33.408 16.4212 33.192 14.1172 33.192C12.1492 33.192 10.3972 33.432 8.86115 33.912C7.37315 34.392 6.07716 34.944 4.97316 35.568C3.91716 36.192 3.05316 36.816 2.38116 37.44C1.70916 38.064 1.22915 38.52 0.941154 38.808C0.845154 38.856 0.797157 38.88 0.797157 38.88C0.749157 38.88 0.725159 38.832 0.725159 38.736C0.725159 38.688 0.749157 38.64 0.797157 38.592C1.66116 36.912 2.71716 35.52 3.96516 34.416C5.21316 33.264 6.74916 32.4 8.57316 31.824C10.3972 27.936 12.2692 24.072 14.1892 20.232C16.1572 16.392 18.2212 12.6 20.3812 8.856C20.4292 8.76 20.5252 8.616 20.6692 8.424C20.8132 8.184 20.9572 8.064 21.1012 8.064C21.1492 8.112 21.1732 8.16 21.1732 8.208V8.352C21.1732 8.736 21.1492 9.024 21.1012 9.216C20.1892 13.104 18.8452 16.848 17.0692 20.448C15.2932 24.048 13.4692 27.6 11.5972 31.104L12.9652 31.032C13.1092 30.744 13.4692 30.12 14.0452 29.16C14.6692 28.2 15.3172 27.216 15.9892 26.208C16.7092 25.152 17.3572 24.216 17.9332 23.4C18.5092 22.536 18.8692 22.104 19.0132 22.104L19.0852 22.32C19.0852 22.56 18.9412 23.088 18.6532 23.904C18.3652 24.72 18.0292 25.608 17.6452 26.568C17.2612 27.528 16.8772 28.44 16.4932 29.304C16.1572 30.12 15.9172 30.696 15.7732 31.032C16.0612 31.032 16.3492 31.056 16.6372 31.104C16.9252 31.104 17.2132 31.104 17.5012 31.104C18.3652 29.376 19.2772 27.576 20.2372 25.704C21.2452 23.784 22.1092 21.84 22.8292 19.872C23.5492 17.904 24.0292 15.912 24.2692 13.896C24.5572 11.88 24.4132 9.888 23.8372 7.92C23.8372 8.16 23.7652 8.64 23.6212 9.36C23.5252 10.08 23.3812 10.848 23.1892 11.664C22.9972 12.432 22.8052 13.128 22.6132 13.752C22.4212 14.328 22.2292 14.616 22.0372 14.616C21.8932 14.616 21.8212 14.52 21.8212 14.328C21.8692 14.136 21.8932 14.016 21.8932 13.968C21.8932 12.72 21.9652 11.496 22.1092 10.296C22.3012 9.048 22.3972 7.8 22.3972 6.552C22.3972 4.872 22.1332 3.24 21.6052 1.656C21.6052 1.608 21.5332 1.416 21.3892 1.08C21.2452 0.695997 21.2932 0.503998 21.5332 0.503998C21.6292 0.503998 21.7972 0.623999 22.0372 0.863998C22.5172 1.344 22.9732 1.992 23.4052 2.808C23.8852 3.624 24.3172 4.512 24.7012 5.472C25.0852 6.384 25.4452 7.296 25.7812 8.208C26.1172 9.12 26.3812 9.888 26.5732 10.512C27.1972 12.576 27.7012 14.664 28.0852 16.776C28.5172 18.84 28.8772 20.928 29.1652 23.04C29.5012 25.104 29.8372 27.192 30.1732 29.304C30.5092 31.416 30.8932 33.504 31.3252 35.568C31.7572 37.584 32.2612 39.552 32.8372 41.472C33.4612 43.392 34.2052 45.216 35.0692 46.944C35.9332 48.672 36.9172 50.28 38.0212 51.768C39.1732 53.208 40.4932 54.48 41.9812 55.584C42.2212 55.824 42.2932 55.968 42.1972 56.016C42.1492 56.112 41.9332 56.04 41.5492 55.8ZM41.4052 49.68C41.4532 49.968 41.4292 50.112 41.3332 50.112C41.2372 50.064 41.1172 49.968 40.9732 49.824C40.8772 49.68 40.7572 49.512 40.6132 49.32C40.5172 49.128 40.4692 49.008 40.4692 48.96C39.3172 46.848 38.4052 44.712 37.7332 42.552C37.0612 40.344 36.5332 38.136 36.1492 35.928C35.7652 33.672 35.4292 31.416 35.1412 29.16C34.9012 26.856 34.5892 24.528 34.2052 22.176C33.8692 19.776 33.4132 17.352 32.8372 14.904C32.2612 12.456 31.4452 9.96 30.3892 7.416C30.3412 7.32 30.2692 7.152 30.1732 6.912C30.0772 6.672 30.0772 6.528 30.1732 6.48C30.2692 6.48 30.3892 6.552 30.5332 6.696L30.8212 6.984C31.8772 8.232 32.8132 9.888 33.6292 11.952C34.4452 14.016 35.1652 16.224 35.7892 18.576C36.4132 20.928 36.9172 23.256 37.3012 25.56C37.7332 27.864 38.0692 29.88 38.3092 31.608C38.6932 34.344 39.1012 37.224 39.5332 40.248C39.9652 43.272 40.5172 46.128 41.1892 48.816L41.4052 49.68ZM20.0212 31.392C21.4132 31.536 22.7812 31.704 24.1252 31.896C25.5172 32.088 26.9092 32.232 28.3012 32.328C27.7732 29.784 27.3172 27.264 26.9332 24.768C26.5492 22.272 26.1892 19.728 25.8532 17.136C25.2292 19.632 24.3652 22.056 23.2612 24.408C22.2052 26.76 21.1252 29.088 20.0212 31.392ZM43.7092 55.008C42.7492 54.576 41.9092 54.168 41.1892 53.784C40.4692 53.352 39.8452 52.776 39.3172 52.056C38.5012 50.952 37.8532 49.848 37.3732 48.744C36.9412 47.64 36.5812 46.608 36.2932 45.648C36.1972 45.264 36.1012 44.832 36.0052 44.352C35.9572 43.872 35.9812 43.632 36.0772 43.632C36.2692 43.632 36.5092 43.944 36.7972 44.568C37.0852 45.192 37.3492 45.72 37.5892 46.152C38.3092 47.64 39.2212 49.152 40.3252 50.688C41.4292 52.176 42.6292 53.4 43.9252 54.36C44.3092 54.696 44.4292 54.912 44.2852 55.008C44.1412 55.104 43.9492 55.104 43.7092 55.008ZM1.15716 41.184C1.15716 41.184 1.10915 41.184 1.01315 41.184H0.941154C0.941154 41.04 0.965153 40.896 1.01315 40.752C1.06115 40.608 1.10916 40.464 1.15716 40.32C1.54116 39.504 1.90116 38.904 2.23716 38.52C2.62116 38.088 3.22116 37.632 4.03716 37.152C4.51716 36.864 5.18915 36.576 6.05315 36.288C6.91715 36 7.61316 35.856 8.14116 35.856C8.23716 35.856 8.35716 35.88 8.50116 35.928C8.69316 35.928 8.78915 36 8.78915 36.144C8.78915 36.288 8.52515 36.48 7.99715 36.72C7.51715 36.96 7.20516 37.128 7.06116 37.224C5.23716 38.328 3.89316 39.168 3.02916 39.744C2.16516 40.32 1.54116 40.8 1.15716 41.184Z" fill="#d4af8f"/>
<path d="M83.6776 7.344C83.6776 8.208 83.4616 9.12 83.0296 10.08C82.6456 11.04 82.1656 11.976 81.5896 12.888C81.0136 13.8 80.3656 14.64 79.6456 15.408C78.9256 16.128 78.2296 16.728 77.5576 17.208C75.7336 18.552 73.7176 19.848 71.5096 21.096C69.3496 22.296 67.2376 23.304 65.1736 24.12C65.0776 24.168 64.8616 24.264 64.5256 24.408C64.1896 24.504 63.9736 24.504 63.8776 24.408C63.7816 24.312 63.8536 24.144 64.0936 23.904C64.3336 23.616 64.5256 23.424 64.6696 23.328C65.0056 22.992 65.4376 22.584 65.9656 22.104C66.5416 21.624 67.1176 21.168 67.6936 20.736C68.3176 20.256 68.9176 19.8 69.4936 19.368C70.1176 18.936 70.6696 18.6 71.1496 18.36C71.4856 18.168 72.2296 17.64 73.3816 16.776C74.5816 15.864 75.8536 14.832 77.1976 13.68C78.5416 12.48 79.7896 11.28 80.9416 10.08C82.1416 8.88 82.8856 7.896 83.1736 7.128C83.3656 6.792 83.5096 6.672 83.6056 6.768C83.6536 6.816 83.6776 6.912 83.6776 7.056C83.6776 7.2 83.6776 7.296 83.6776 7.344ZM52.2856 34.056C54.0616 34.296 55.7896 34.656 57.4696 35.136C59.1496 35.568 60.7096 36.408 62.1496 37.656C63.8296 39.096 65.5576 40.704 67.3336 42.48C69.1096 44.208 70.7416 45.912 72.2296 47.592C72.3256 47.688 72.4696 47.88 72.6616 48.168C72.8536 48.408 72.9016 48.6 72.8056 48.744C72.7576 48.84 72.5656 48.84 72.2296 48.744C71.9416 48.6 71.7496 48.48 71.6536 48.384C71.2216 48.144 70.6936 47.832 70.0696 47.448C69.4936 47.016 68.8936 46.56 68.2696 46.08C67.6456 45.6 67.0456 45.144 66.4696 44.712C65.8936 44.232 65.4136 43.8 65.0296 43.416C64.7896 43.176 64.1416 42.648 63.0856 41.832C62.0776 40.968 60.8776 40.08 59.4856 39.168C58.0936 38.208 56.6296 37.32 55.0936 36.504C53.6056 35.688 52.2616 35.136 51.0616 34.848C50.6776 34.752 50.4856 34.512 50.4856 34.128C50.5336 33.744 50.5816 33.408 50.6296 33.12C50.7256 32.544 50.8456 31.824 50.9896 30.96C51.1816 30.096 51.3496 29.208 51.4936 28.296C51.6856 27.384 51.8776 26.496 52.0696 25.632C52.2616 24.768 52.4536 24.024 52.6456 23.4C52.7896 22.968 53.0536 21.888 53.4376 20.16C53.8216 18.432 54.2056 16.512 54.5896 14.4C54.9736 12.288 55.2616 10.248 55.4536 8.28C55.6456 6.312 55.6216 4.87199 55.3816 3.96C55.2856 3.528 55.3096 3.312 55.4536 3.312C55.5496 3.312 55.6216 3.384 55.6696 3.528C55.7176 3.624 55.7896 3.72 55.8856 3.816C56.4136 4.632 56.8216 5.616 57.1096 6.768C57.3976 7.92 57.5656 9.144 57.6136 10.44C57.7096 11.688 57.6856 12.936 57.5416 14.184C57.4456 15.432 57.2776 16.512 57.0376 17.424C56.5096 19.44 55.9096 21.456 55.2376 23.472C54.5656 25.44 53.8456 27.432 53.0776 29.448C53.6056 28.68 54.1096 27.96 54.5896 27.288C55.0696 26.568 55.5016 25.896 55.8856 25.272L55.9576 24.912C56.4376 22.608 57.0136 20.28 57.6856 17.928C58.4056 15.576 58.8136 13.032 58.9096 10.296C59.0056 10.056 59.0776 9.936 59.1256 9.936C59.1736 9.936 59.2216 9.984 59.2696 10.08C59.3176 10.176 59.3656 10.272 59.4136 10.368C59.9416 11.664 60.1336 13.368 59.9896 15.48C59.8456 17.544 59.5576 19.704 59.1256 21.96C59.7016 21.48 60.2536 21.024 60.7816 20.592C61.3576 20.16 61.9816 19.728 62.6536 19.296C64.4776 18.048 66.3496 16.848 68.2696 15.696C70.1896 14.544 72.0376 13.368 73.8136 12.168C75.6376 10.968 77.3176 9.744 78.8536 8.496C80.3896 7.248 81.7096 5.88 82.8136 4.392C82.9576 4.248 83.0536 4.224 83.1016 4.32C83.1496 4.32 83.1496 4.392 83.1016 4.536C83.1016 4.632 83.1016 4.704 83.1016 4.752C82.3816 6.72 81.2776 8.472 79.7896 10.008C78.3496 11.496 76.6936 12.888 74.8216 14.184C72.9976 15.48 71.0776 16.704 69.0616 17.856C67.0456 19.008 65.1256 20.232 63.3016 21.528C61.0456 23.064 58.9336 24.888 56.9656 27C54.9976 29.112 53.4376 31.464 52.2856 34.056ZM55.7416 33.624C55.5016 33.624 55.1656 33.624 54.7336 33.624C54.3496 33.576 53.9896 33.576 53.6536 33.624C53.8456 33.24 54.0616 32.856 54.3016 32.472C54.5896 32.088 54.8536 31.704 55.0936 31.32C55.3816 30.936 55.7176 30.528 56.1016 30.096C56.5336 29.616 56.9416 29.208 57.3256 28.872C57.7576 28.488 58.1176 28.224 58.4056 28.08C58.7416 27.888 58.9576 27.888 59.0536 28.08C59.1016 28.128 59.0536 28.248 58.9096 28.44C58.8136 28.632 58.6696 28.872 58.4776 29.16C58.2856 29.4 58.0936 29.64 57.9016 29.88C57.7576 30.072 57.6616 30.216 57.6136 30.312C57.0856 30.984 56.7016 31.584 56.4616 32.112C56.2216 32.592 55.9816 33.096 55.7416 33.624ZM83.3176 53.136C83.2216 53.232 83.0776 53.256 82.8856 53.208C82.7416 53.112 82.5736 53.016 82.3816 52.92C80.9896 52.296 79.6696 51.528 78.4216 50.616C77.2216 49.704 76.0456 48.72 74.8936 47.664C73.7416 46.608 72.5896 45.528 71.4376 44.424C70.3336 43.272 69.2056 42.144 68.0536 41.04C67.2376 40.272 66.3736 39.48 65.4616 38.664C64.5496 37.848 63.6136 37.104 62.6536 36.432C61.6936 35.712 60.6856 35.112 59.6296 34.632C58.6216 34.104 57.5896 33.768 56.5336 33.624C57.1576 32.712 58.1656 31.68 59.5576 30.528C60.9496 29.376 62.4616 28.248 64.0936 27.144C65.7256 26.04 67.3336 24.984 68.9176 23.976C70.5016 22.968 71.7976 22.152 72.8056 21.528C74.4856 20.472 76.1656 19.344 77.8456 18.144C79.5736 16.944 81.1576 15.48 82.5976 13.752C82.7416 13.56 82.8856 13.488 83.0296 13.536C83.0296 13.632 83.0056 13.728 82.9576 13.824C82.9096 13.872 82.8856 13.944 82.8856 14.04C82.6456 15.24 81.9256 16.512 80.7256 17.856C79.5736 19.152 78.2536 20.4 76.7656 21.6C75.2776 22.8 73.7656 23.928 72.2296 24.984C70.6936 25.992 69.4696 26.808 68.5576 27.432C67.6936 28.008 66.7816 28.56 65.8216 29.088C64.9096 29.616 63.9736 30.144 63.0136 30.672C62.0536 31.152 61.1176 31.608 60.2056 32.04C59.3416 32.424 58.5256 32.784 57.7576 33.12C59.0056 33.12 60.4216 33.504 62.0056 34.272C63.6376 35.04 65.2456 35.976 66.8296 37.08C68.4136 38.136 69.8776 39.264 71.2216 40.464C72.5656 41.616 73.5976 42.576 74.3176 43.344C75.8536 45.024 77.3656 46.656 78.8536 48.24C80.3896 49.824 81.7336 51.192 82.8856 52.344C83.2696 52.728 83.4136 52.992 83.3176 53.136ZM53.7976 2.016C54.4696 4.32 54.6856 6.72 54.4456 9.216C54.2056 11.664 53.7256 14.184 53.0056 16.776C52.3336 19.368 51.5656 22.008 50.7016 24.696C49.8376 27.384 49.0936 30.048 48.4696 32.688C48.0856 34.368 47.7736 36.12 47.5336 37.944C47.3416 39.768 47.2696 41.616 47.3176 43.488C47.4136 45.312 47.6296 47.112 47.9656 48.888C48.3496 50.616 48.9496 52.224 49.7656 53.712C49.9576 54.096 50.0296 54.288 49.9816 54.288C49.8856 54.288 49.7896 54.24 49.6936 54.144C49.5976 54.048 49.5256 54 49.4776 54C48.1336 52.416 47.1496 50.712 46.5256 48.888C45.9016 47.016 45.5176 45.096 45.3736 43.128C45.2296 41.16 45.2776 39.168 45.5176 37.152C45.8056 35.136 46.1656 33.168 46.5976 31.248C47.2216 28.608 47.9416 25.992 48.7576 23.4C49.5736 20.76 50.3176 18.216 50.9896 15.768C51.7096 13.272 52.3096 10.872 52.7896 8.568C53.2696 6.264 53.4856 4.056 53.4376 1.944C53.4376 1.656 53.4616 1.512 53.5096 1.512C53.5576 1.464 53.6056 1.536 53.6536 1.728C53.7496 1.872 53.7976 1.968 53.7976 2.016ZM87.8536 55.44C87.8536 55.536 87.8056 55.608 87.7096 55.656C87.6136 55.704 87.5176 55.752 87.4216 55.8C85.5976 56.472 83.8216 56.76 82.0936 56.664C80.4136 56.616 78.7576 56.328 77.1256 55.8C75.5416 55.32 74.0056 54.672 72.5176 53.856C71.0776 53.04 69.7096 52.224 68.4136 51.408C67.1176 50.592 65.8696 49.656 64.6696 48.6C63.4696 47.544 62.2936 46.464 61.1416 45.36C59.9896 44.256 58.8376 43.176 57.6856 42.12C56.5816 41.064 55.4776 40.128 54.3736 39.312L52.1416 46.8C52.0456 47.04 51.9496 47.256 51.8536 47.448C51.8056 47.64 51.7336 47.712 51.6376 47.664C51.5416 47.616 51.4696 47.496 51.4216 47.304C51.4216 47.064 51.4216 46.824 51.4216 46.584C51.4696 45.192 51.5896 43.776 51.7816 42.336C51.9736 40.896 52.2136 39.456 52.5016 38.016C52.2136 37.824 51.8536 37.608 51.4216 37.368C50.9896 37.128 50.5816 36.888 50.1976 36.648C50.1016 36.6 49.9816 36.528 49.8376 36.432C49.6936 36.288 49.6456 36.168 49.6936 36.072C49.6936 36.024 49.8136 36 50.0536 36C51.7816 36.144 53.4616 36.72 55.0936 37.728C56.7736 38.688 58.4296 39.864 60.0616 41.256C61.7416 42.6 63.4216 44.064 65.1016 45.648C66.7816 47.232 68.5336 48.744 70.3576 50.184C72.6616 51.96 75.3016 53.352 78.2776 54.36C81.2536 55.416 84.2776 55.752 87.3496 55.368C87.6856 55.272 87.8536 55.296 87.8536 55.44ZM51.9976 54.288C51.9016 54.288 51.7576 54.24 51.5656 54.144C51.4696 54.096 51.3976 54.024 51.3496 53.928C50.7256 53.208 50.2216 52.536 49.8376 51.912C49.5016 51.288 49.2136 50.28 48.9736 48.888C48.8776 48.36 48.8056 47.688 48.7576 46.872C48.7576 46.056 48.7816 45.264 48.8296 44.496C48.8776 43.728 48.9496 43.08 49.0456 42.552C49.1896 42.024 49.3576 41.76 49.5496 41.76C49.5976 41.76 49.6456 41.88 49.6936 42.12C49.7896 42.36 49.8616 42.648 49.9096 42.984C49.9576 43.272 49.9816 43.584 49.9816 43.92C50.0296 44.208 50.0536 44.4 50.0536 44.496C50.1496 45.552 50.2216 46.416 50.2696 47.088C50.3656 47.76 50.4616 48.36 50.5576 48.888C50.7976 50.424 51.2776 52.032 51.9976 53.712C52.0456 53.808 52.0696 53.928 52.0696 54.072C52.1176 54.216 52.0936 54.288 51.9976 54.288ZM78.0616 52.848C78.3976 52.896 78.8056 52.992 79.2856 53.136C79.8136 53.232 80.2216 53.328 80.5096 53.424C81.7576 53.76 82.7896 54 83.6056 54.144C84.4696 54.336 85.4776 54.456 86.6296 54.504C86.7256 54.504 86.8456 54.504 86.9896 54.504C87.1816 54.504 87.2776 54.552 87.2776 54.648C87.2776 54.84 87.0376 54.96 86.5576 55.008C85.9816 55.104 85.4776 55.152 85.0456 55.152C84.6136 55.152 84.0616 55.128 83.3896 55.08C83.0056 55.032 82.5496 54.96 82.0216 54.864C81.4936 54.768 80.9656 54.624 80.4376 54.432C79.9096 54.288 79.4056 54.144 78.9256 54C78.4936 53.808 78.1816 53.616 77.9896 53.424C77.7976 53.232 77.7256 53.064 77.7736 52.92C77.7736 52.872 77.8696 52.848 78.0616 52.848Z" fill="#6a6a6a"/>
<path d="M110.05 2.448C109.954 2.304 109.81 2.088 109.618 1.8C109.474 1.464 109.45 1.248 109.546 1.152C109.642 1.056 109.786 1.08 109.978 1.224C110.218 1.368 110.362 1.464 110.41 1.512C111.274 2.136 112.066 3 112.786 4.104C113.554 5.208 114.226 6.432 114.802 7.776C115.426 9.072 115.978 10.44 116.458 11.88C116.938 13.32 117.322 14.688 117.61 15.984C118.33 19.152 118.93 22.272 119.41 25.344C119.938 28.416 120.202 31.584 120.202 34.848C120.202 34.944 120.202 35.232 120.202 35.712C120.25 36.192 120.178 36.48 119.986 36.576C119.842 36.48 119.674 36.24 119.482 35.856C119.338 35.472 119.242 35.208 119.194 35.064C118.618 33.288 118.09 31.272 117.61 29.016C117.178 26.712 116.77 24.624 116.386 22.752C116.098 21.312 115.834 19.944 115.594 18.648C115.354 17.304 115.066 16.008 114.73 14.76C114.442 13.512 114.082 12.264 113.65 11.016C113.266 9.72 112.786 8.376 112.21 6.984C112.114 6.792 111.946 6.456 111.706 5.976C111.514 5.496 111.298 5.016 111.058 4.536C110.818 4.056 110.602 3.624 110.41 3.24C110.218 2.808 110.098 2.544 110.05 2.448ZM127.33 55.8C126.802 55.512 126.442 55.32 126.25 55.224C126.058 55.176 125.698 54.984 125.17 54.648C124.018 53.976 122.962 53.112 122.002 52.056C121.042 50.952 120.178 49.752 119.41 48.456C118.642 47.16 117.946 45.792 117.322 44.352C116.746 42.864 116.242 41.4 115.81 39.96C114.85 40.584 113.698 40.968 112.354 41.112C111.058 41.208 109.858 41.256 108.754 41.256C107.362 41.256 105.97 41.208 104.578 41.112C103.234 41.016 101.866 40.968 100.474 40.968C99.1304 43.464 97.8584 45.888 96.6584 48.24C95.5064 50.544 94.5944 52.704 93.9224 54.72C93.9224 54.768 93.8984 54.864 93.8504 55.008C93.8024 55.2 93.7304 55.296 93.6344 55.296C93.4904 55.296 93.4184 55.128 93.4184 54.792C93.4184 54.456 93.4184 54.24 93.4184 54.144C93.4184 52.224 93.8744 50.088 94.7864 47.736C95.7464 45.336 96.8024 42.984 97.9544 40.68L96.8744 40.608C96.5864 41.28 96.1784 42.216 95.6504 43.416C95.1704 44.616 94.6904 45.864 94.2104 47.16C93.7784 48.456 93.3704 49.704 92.9864 50.904C92.6504 52.104 92.4824 53.064 92.4824 53.784C92.4824 53.928 92.4104 54 92.2664 54C92.0744 54 91.9304 53.856 91.8344 53.568C91.7384 53.232 91.6424 52.872 91.5464 52.488C91.4984 52.104 91.4504 51.72 91.4024 51.336C91.4024 50.904 91.4024 50.616 91.4024 50.472C91.4024 48.792 91.6184 47.04 92.0504 45.216C92.4824 43.344 93.0584 41.64 93.7784 40.104L92.8424 39.96C92.4104 41.016 92.0024 42.072 91.6184 43.128C91.2344 44.136 90.8984 45.192 90.6104 46.296C90.6104 46.392 90.5864 46.512 90.5384 46.656C90.4904 46.8 90.4184 46.848 90.3224 46.8C90.2264 46.608 90.1544 46.392 90.1064 46.152C90.1064 45.864 90.1064 45.624 90.1064 45.432C90.1064 43.416 90.4664 41.472 91.1864 39.6C91.4264 39.12 91.6664 38.88 91.9064 38.88C92.9144 38.592 93.9224 38.424 94.9304 38.376C95.9864 38.328 97.0664 38.304 98.1704 38.304C100.57 38.304 102.946 38.496 105.298 38.88C107.65 39.216 110.002 39.384 112.354 39.384C113.506 39.384 114.562 39.288 115.522 39.096L115.378 37.944C114.85 38.088 114.274 38.184 113.65 38.232C113.074 38.28 112.522 38.304 111.994 38.304C110.122 38.304 108.178 38.112 106.162 37.728C104.194 37.344 102.298 36.888 100.474 36.36C100.378 36.264 100.186 36.192 99.8984 36.144C99.6104 36.048 99.4664 35.928 99.4664 35.784C99.4664 35.688 99.6104 35.616 99.8984 35.568C100.186 35.472 100.378 35.424 100.474 35.424C101.146 35.376 101.794 35.352 102.418 35.352C103.09 35.304 103.762 35.28 104.434 35.28C105.538 35.28 106.642 35.304 107.746 35.352C108.85 35.352 109.978 35.352 111.13 35.352C111.706 35.352 112.306 35.352 112.93 35.352C113.554 35.352 114.154 35.328 114.73 35.28L114.586 34.488H113.65C111.346 34.488 109.042 34.272 106.738 33.84C104.482 33.408 102.202 33.192 99.8984 33.192C97.9304 33.192 96.1784 33.432 94.6424 33.912C93.1544 34.392 91.8584 34.944 90.7544 35.568C89.6984 36.192 88.8344 36.816 88.1624 37.44C87.4904 38.064 87.0104 38.52 86.7224 38.808C86.6264 38.856 86.5784 38.88 86.5784 38.88C86.5304 38.88 86.5064 38.832 86.5064 38.736C86.5064 38.688 86.5304 38.64 86.5784 38.592C87.4424 36.912 88.4984 35.52 89.7464 34.416C90.9944 33.264 92.5304 32.4 94.3544 31.824C96.1784 27.936 98.0504 24.072 99.9704 20.232C101.938 16.392 104.002 12.6 106.162 8.856C106.21 8.76 106.306 8.616 106.45 8.424C106.594 8.184 106.738 8.064 106.882 8.064C106.93 8.112 106.954 8.16 106.954 8.208V8.352C106.954 8.736 106.93 9.024 106.882 9.216C105.97 13.104 104.626 16.848 102.85 20.448C101.074 24.048 99.2504 27.6 97.3784 31.104L98.7464 31.032C98.8904 30.744 99.2504 30.12 99.8264 29.16C100.45 28.2 101.098 27.216 101.77 26.208C102.49 25.152 103.138 24.216 103.714 23.4C104.29 22.536 104.65 22.104 104.794 22.104L104.866 22.32C104.866 22.56 104.722 23.088 104.434 23.904C104.146 24.72 103.81 25.608 103.426 26.568C103.042 27.528 102.658 28.44 102.274 29.304C101.938 30.12 101.698 30.696 101.554 31.032C101.842 31.032 102.13 31.056 102.418 31.104C102.706 31.104 102.994 31.104 103.282 31.104C104.146 29.376 105.058 27.576 106.018 25.704C107.026 23.784 107.89 21.84 108.61 19.872C109.33 17.904 109.81 15.912 110.05 13.896C110.338 11.88 110.194 9.888 109.618 7.92C109.618 8.16 109.546 8.64 109.402 9.36C109.306 10.08 109.162 10.848 108.97 11.664C108.778 12.432 108.586 13.128 108.394 13.752C108.202 14.328 108.01 14.616 107.818 14.616C107.674 14.616 107.602 14.52 107.602 14.328C107.65 14.136 107.674 14.016 107.674 13.968C107.674 12.72 107.746 11.496 107.89 10.296C108.082 9.048 108.178 7.8 108.178 6.552C108.178 4.872 107.914 3.24 107.386 1.656C107.386 1.608 107.314 1.416 107.17 1.08C107.026 0.695997 107.074 0.503998 107.314 0.503998C107.41 0.503998 107.578 0.623999 107.818 0.863998C108.298 1.344 108.754 1.992 109.186 2.808C109.666 3.624 110.098 4.512 110.482 5.472C110.866 6.384 111.226 7.296 111.562 8.208C111.898 9.12 112.162 9.888 112.354 10.512C112.978 12.576 113.482 14.664 113.866 16.776C114.298 18.84 114.658 20.928 114.946 23.04C115.282 25.104 115.618 27.192 115.954 29.304C116.29 31.416 116.674 33.504 117.106 35.568C117.538 37.584 118.042 39.552 118.618 41.472C119.242 43.392 119.986 45.216 120.85 46.944C121.714 48.672 122.698 50.28 123.802 51.768C124.954 53.208 126.274 54.48 127.762 55.584C128.002 55.824 128.074 55.968 127.978 56.016C127.93 56.112 127.714 56.04 127.33 55.8ZM127.186 49.68C127.234 49.968 127.21 50.112 127.114 50.112C127.018 50.064 126.898 49.968 126.754 49.824C126.658 49.68 126.538 49.512 126.394 49.32C126.298 49.128 126.25 49.008 126.25 48.96C125.098 46.848 124.186 44.712 123.514 42.552C122.842 40.344 122.314 38.136 121.93 35.928C121.546 33.672 121.21 31.416 120.922 29.16C120.682 26.856 120.37 24.528 119.986 22.176C119.65 19.776 119.194 17.352 118.618 14.904C118.042 12.456 117.226 9.96 116.17 7.416C116.122 7.32 116.05 7.152 115.954 6.912C115.858 6.672 115.858 6.528 115.954 6.48C116.05 6.48 116.17 6.552 116.314 6.696L116.602 6.984C117.658 8.232 118.594 9.888 119.41 11.952C120.226 14.016 120.946 16.224 121.57 18.576C122.194 20.928 122.698 23.256 123.082 25.56C123.514 27.864 123.85 29.88 124.09 31.608C124.474 34.344 124.882 37.224 125.314 40.248C125.746 43.272 126.298 46.128 126.97 48.816L127.186 49.68ZM105.802 31.392C107.194 31.536 108.562 31.704 109.906 31.896C111.298 32.088 112.69 32.232 114.082 32.328C113.554 29.784 113.098 27.264 112.714 24.768C112.33 22.272 111.97 19.728 111.634 17.136C111.01 19.632 110.146 22.056 109.042 24.408C107.986 26.76 106.906 29.088 105.802 31.392ZM129.49 55.008C128.53 54.576 127.69 54.168 126.97 53.784C126.25 53.352 125.626 52.776 125.098 52.056C124.282 50.952 123.634 49.848 123.154 48.744C122.722 47.64 122.362 46.608 122.074 45.648C121.978 45.264 121.882 44.832 121.786 44.352C121.738 43.872 121.762 43.632 121.858 43.632C122.05 43.632 122.29 43.944 122.578 44.568C122.866 45.192 123.13 45.72 123.37 46.152C124.09 47.64 125.002 49.152 126.106 50.688C127.21 52.176 128.41 53.4 129.706 54.36C130.09 54.696 130.21 54.912 130.066 55.008C129.922 55.104 129.73 55.104 129.49 55.008ZM86.9384 41.184C86.9384 41.184 86.8904 41.184 86.7944 41.184H86.7224C86.7224 41.04 86.7464 40.896 86.7944 40.752C86.8424 40.608 86.8904 40.464 86.9384 40.32C87.3224 39.504 87.6824 38.904 88.0184 38.52C88.4024 38.088 89.0024 37.632 89.8184 37.152C90.2984 36.864 90.9704 36.576 91.8344 36.288C92.6984 36 93.3944 35.856 93.9224 35.856C94.0184 35.856 94.1384 35.88 94.2824 35.928C94.4744 35.928 94.5704 36 94.5704 36.144C94.5704 36.288 94.3064 36.48 93.7784 36.72C93.2984 36.96 92.9864 37.128 92.8424 37.224C91.0184 38.328 89.6744 39.168 88.8104 39.744C87.9464 40.32 87.3224 40.8 86.9384 41.184Z" fill="#d4af8f"/>
</svg>