<svg width=".5fr" height=".5fr" viewBox="0 0 674 146" fill="none" xmlns="http://www.w3.org/2000/svg">
<path d="M73.2458 49C73.5818 49 73.9178 48.664 74.2538 47.992C74.5898 47.32 74.7578 46.216 74.7578 44.68V10.12C74.7578 8.584 74.5898 7.504 74.2538 6.88C73.9178 6.208 73.5818 5.848 73.2458 5.8H113.782V7.24L115.222 14.152C114.022 13.624 111.91 13.072 108.886 12.496C105.862 11.872 102.214 11.56 97.9418 11.56H85.7738C84.3338 11.56 83.4698 11.68 83.1818 11.92C82.9418 12.112 82.8218 12.712 82.8218 13.72V21.928C82.8218 22.984 82.9418 23.608 83.1818 23.8C83.4698 23.992 84.3098 24.088 85.7018 24.088H97.5818C100.366 24.088 102.598 23.944 104.278 23.656C106.006 23.32 107.134 22.984 107.662 22.648C107.326 23.56 106.99 24.736 106.654 26.176C106.366 27.568 106.222 28.792 106.222 29.848H85.7018C84.3098 29.848 83.4698 29.944 83.1818 30.136C82.9418 30.28 82.8218 30.904 82.8218 32.008V44.68C82.8218 46.264 82.9898 47.392 83.3258 48.064C83.6618 48.688 83.9978 49 84.3338 49H73.2458Z" fill="#6a6a6a"/>
<path d="M119.98 49C120.316 49 120.628 48.664 120.916 47.992C121.252 47.32 121.42 46.216 121.42 44.68V20.344C121.42 18.808 121.252 17.728 120.916 17.104C120.628 16.432 120.316 16.072 119.98 16.024C122.092 16.024 123.916 15.88 125.452 15.592C127.036 15.256 128.14 14.92 128.764 14.584V18.184L128.62 19.408L128.764 19.552C129.868 18.16 131.284 16.984 133.012 16.024C134.788 15.064 136.972 14.584 139.564 14.584C141.82 14.584 143.764 14.92 145.396 15.592C147.076 16.216 148.276 16.864 148.996 17.536L147.556 23.584V25.744C146.932 24.976 146.02 24.184 144.82 23.368C143.668 22.504 142.348 21.784 140.86 21.208C139.372 20.632 137.788 20.344 136.108 20.344C134.188 20.344 132.484 21.112 130.996 22.648C129.508 24.184 128.764 26.728 128.764 30.28V44.68C128.764 46.216 128.908 47.32 129.196 47.992C129.532 48.664 129.868 49 130.204 49H119.98Z" fill="#6a6a6a"/>
<path d="M169.622 49.72C165.83 49.72 162.71 49.288 160.262 48.424C157.814 47.512 155.894 46.264 154.502 44.68C153.11 43.096 152.126 41.248 151.55 39.136C151.022 37.024 150.758 34.72 150.758 32.224C150.758 26.8 152.294 22.504 155.366 19.336C158.486 16.168 163.094 14.584 169.19 14.584C172.742 14.584 175.598 15.064 177.758 16.024C179.966 16.984 181.622 18.256 182.726 19.84C183.878 21.424 184.646 23.152 185.03 25.024C185.462 26.848 185.678 28.648 185.678 30.424V33.808C185.678 33.664 185.006 33.52 183.662 33.376C182.366 33.184 180.158 33.088 177.038 33.088H158.102C158.102 36.64 159.158 39.448 161.27 41.512C163.382 43.576 166.526 44.608 170.702 44.608C174.302 44.608 177.254 44.176 179.558 43.312C181.91 42.4 183.47 41.512 184.238 40.648V42.088L184.958 46.84C183.902 47.464 182.03 48.112 179.342 48.784C176.702 49.408 173.462 49.72 169.622 49.72ZM160.982 28.336H178.478C178.478 27.088 178.214 25.792 177.686 24.448C177.158 23.104 176.222 21.976 174.878 21.064C173.534 20.104 171.638 19.624 169.19 19.624C166.07 19.624 163.574 20.368 161.702 21.856C159.878 23.344 158.966 25.024 158.966 26.896C158.966 27.376 159.11 27.736 159.398 27.976C159.686 28.216 160.214 28.336 160.982 28.336Z" fill="#6a6a6a"/>
<path d="M209.911 49.72C206.119 49.72 202.999 49.288 200.551 48.424C198.103 47.512 196.183 46.264 194.791 44.68C193.399 43.096 192.415 41.248 191.839 39.136C191.311 37.024 191.047 34.72 191.047 32.224C191.047 26.8 192.583 22.504 195.655 19.336C198.775 16.168 203.383 14.584 209.479 14.584C213.031 14.584 215.887 15.064 218.047 16.024C220.255 16.984 221.911 18.256 223.015 19.84C224.167 21.424 224.935 23.152 225.319 25.024C225.751 26.848 225.967 28.648 225.967 30.424V33.808C225.967 33.664 225.295 33.52 223.951 33.376C222.655 33.184 220.447 33.088 217.327 33.088H198.391C198.391 36.64 199.447 39.448 201.559 41.512C203.671 43.576 206.815 44.608 210.991 44.608C214.591 44.608 217.543 44.176 219.847 43.312C222.199 42.4 223.759 41.512 224.527 40.648V42.088L225.247 46.84C224.191 47.464 222.319 48.112 219.631 48.784C216.991 49.408 213.751 49.72 209.911 49.72ZM201.271 28.336H218.767C218.767 27.088 218.503 25.792 217.975 24.448C217.447 23.104 216.511 21.976 215.167 21.064C213.823 20.104 211.927 19.624 209.479 19.624C206.359 19.624 203.863 20.368 201.991 21.856C200.167 23.344 199.255 25.024 199.255 26.896C199.255 27.376 199.399 27.736 199.687 27.976C199.975 28.216 200.503 28.336 201.271 28.336Z" fill="#6a6a6a"/>
<path d="M250.433 49C250.769 49 251.105 48.664 251.441 47.992C251.777 47.32 251.945 46.216 251.945 44.68V10.12C251.945 8.584 251.777 7.504 251.441 6.88C251.105 6.208 250.769 5.848 250.433 5.8H290.969V7.24L292.409 14.152C291.209 13.624 289.097 13.072 286.073 12.496C283.049 11.872 279.401 11.56 275.129 11.56H262.961C261.521 11.56 260.657 11.68 260.369 11.92C260.129 12.112 260.009 12.712 260.009 13.72V21.928C260.009 22.984 260.129 23.608 260.369 23.8C260.657 23.992 261.497 24.088 262.889 24.088H274.769C277.553 24.088 279.785 23.944 281.465 23.656C283.193 23.32 284.321 22.984 284.849 22.648C284.513 23.56 284.177 24.736 283.841 26.176C283.553 27.568 283.409 28.792 283.409 29.848H262.889C261.497 29.848 260.657 29.944 260.369 30.136C260.129 30.28 260.009 30.904 260.009 32.008V40.936C260.009 42.04 260.129 42.688 260.369 42.88C260.609 43.072 261.449 43.168 262.889 43.168H283.841C286.625 43.168 288.857 42.856 290.537 42.232C292.265 41.56 293.393 40.912 293.921 40.288L292.481 46.768V49H250.433Z" fill="#6a6a6a"/>
<path d="M317.292 49.72C312.78 49.72 308.988 49.48 305.916 49C302.892 48.52 300.828 48.04 299.724 47.56V46.12L298.212 39.928C299.46 40.936 301.644 41.992 304.764 43.096C307.932 44.152 311.772 44.68 316.284 44.68C319.26 44.68 321.492 44.488 322.98 44.104C324.468 43.672 325.452 43.12 325.932 42.448C326.412 41.728 326.652 40.936 326.652 40.072C326.652 39.064 326.292 38.272 325.572 37.696C324.9 37.072 323.604 36.568 321.684 36.184C319.812 35.752 317.028 35.32 313.332 34.888C309.3 34.408 306.18 33.712 303.972 32.8C301.812 31.888 300.324 30.736 299.508 29.344C298.692 27.904 298.284 26.2 298.284 24.232C298.284 22.696 298.692 21.184 299.508 19.696C300.324 18.208 301.836 16.984 304.044 16.024C306.3 15.064 309.492 14.584 313.62 14.584C318.084 14.584 321.828 14.824 324.852 15.304C327.924 15.784 330.012 16.264 331.116 16.744V18.184L332.556 23.656C331.356 22.792 329.172 21.904 326.004 20.992C322.836 20.08 319.02 19.624 314.556 19.624C311.004 19.624 308.628 20.032 307.428 20.848C306.228 21.616 305.628 22.624 305.628 23.872C305.628 24.592 305.772 25.24 306.06 25.816C306.348 26.344 306.924 26.824 307.788 27.256C308.7 27.688 310.044 28.072 311.82 28.408C313.644 28.744 316.068 29.08 319.092 29.416C323.172 29.848 326.268 30.52 328.38 31.432C330.492 32.344 331.932 33.496 332.7 34.888C333.516 36.232 333.924 37.816 333.924 39.64C333.924 41.608 333.372 43.36 332.268 44.896C331.212 46.384 329.46 47.56 327.012 48.424C324.564 49.288 321.324 49.72 317.292 49.72Z" fill="#6a6a6a"/>
<path d="M353.747 49.72C350.435 49.72 348.035 49.024 346.547 47.632C345.059 46.192 344.315 43.864 344.315 40.648V20.344H337.835V15.304C340.043 15.304 341.771 15.04 343.019 14.512C344.267 13.936 345.155 12.952 345.683 11.56C346.211 10.168 346.475 8.224 346.475 5.728H351.659V15.304H365.411C365.075 15.784 364.739 16.504 364.403 17.464C364.115 18.376 363.971 19.336 363.971 20.344H351.659V39.568C351.659 41.776 352.067 43.168 352.883 43.744C353.699 44.32 354.731 44.608 355.979 44.608C357.755 44.608 359.363 44.08 360.803 43.024C362.243 41.968 363.275 40.936 363.899 39.928V42.16L364.619 46.264C363.899 47.032 362.603 47.8 360.731 48.568C358.859 49.336 356.531 49.72 353.747 49.72Z" fill="#6a6a6a"/>
<path d="M373.841 8.392C372.449 8.392 371.369 8.008 370.601 7.24C369.833 6.424 369.449 5.488 369.449 4.432C369.449 3.328 369.809 2.392 370.529 1.624C371.297 0.855998 372.401 0.472 373.841 0.472C375.281 0.472 376.361 0.855998 377.081 1.624C377.849 2.392 378.233 3.328 378.233 4.432C378.233 5.488 377.849 6.424 377.081 7.24C376.313 8.008 375.233 8.392 373.841 8.392ZM369.449 49C369.785 49 370.097 48.664 370.385 47.992C370.721 47.32 370.889 46.216 370.889 44.68V19.624C370.889 18.088 370.721 17.008 370.385 16.384C370.097 15.712 369.785 15.352 369.449 15.304H378.233V44.68C378.233 46.216 378.377 47.32 378.665 47.992C379.001 48.664 379.337 49 379.673 49H369.449Z" fill="#6a6a6a"/>
<path d="M385.832 49C386.168 49 386.48 48.664 386.768 47.992C387.104 47.32 387.272 46.216 387.272 44.68V20.344C387.272 18.808 387.104 17.728 386.768 17.104C386.48 16.432 386.168 16.072 385.832 16.024C387.944 16.024 389.768 15.88 391.304 15.592C392.888 15.256 393.992 14.92 394.616 14.584V18.976L394.472 19.912L394.616 20.056C395.336 19.144 396.128 18.28 396.992 17.464C397.904 16.648 399.08 15.976 400.52 15.448C401.96 14.872 403.808 14.584 406.064 14.584C408.992 14.584 411.464 15.136 413.48 16.24C415.544 17.296 417.128 18.952 418.232 21.208C418.808 20.248 419.624 19.264 420.68 18.256C421.784 17.248 423.2 16.384 424.928 15.664C426.656 14.944 428.768 14.584 431.264 14.584C435.728 14.584 439.136 15.856 441.488 18.4C443.888 20.944 445.088 24.928 445.088 30.352V44.68C445.088 46.216 445.232 47.32 445.52 47.992C445.856 48.664 446.192 49 446.528 49H436.304C436.64 49 436.952 48.664 437.24 47.992C437.576 47.32 437.744 46.216 437.744 44.68V30.568C437.744 27.736 437.384 25.528 436.664 23.944C435.944 22.36 434.936 21.256 433.64 20.632C432.392 19.96 430.928 19.624 429.248 19.624C426.464 19.624 424.208 20.512 422.48 22.288C420.752 24.016 419.888 26.968 419.888 31.144V44.68C419.888 46.216 420.032 47.32 420.32 47.992C420.656 48.664 420.992 49 421.328 49H411.104C411.44 49 411.752 48.664 412.04 47.992C412.376 47.32 412.544 46.216 412.544 44.68V30.568C412.544 27.736 412.184 25.528 411.464 23.944C410.744 22.36 409.736 21.256 408.44 20.632C407.192 19.96 405.728 19.624 404.048 19.624C401.36 19.624 399.104 20.512 397.28 22.288C395.504 24.016 394.616 26.992 394.616 31.216V44.68C394.616 46.216 394.76 47.32 395.048 47.992C395.384 48.664 395.72 49 396.056 49H385.832Z" fill="#6a6a6a"/>
<path d="M466.451 49.72C461.219 49.72 457.547 48.784 455.435 46.912C453.323 44.992 452.267 42.424 452.267 39.208C452.267 35.848 453.539 33.208 456.083 31.288C458.627 29.368 462.515 28.408 467.747 28.408C471.491 28.408 474.491 28.792 476.747 29.56C479.003 30.28 480.515 30.904 481.283 31.432C481.235 27.16 480.419 24.136 478.835 22.36C477.299 20.536 474.563 19.624 470.627 19.624C467.795 19.624 465.251 19.96 462.995 20.632C460.787 21.256 459.011 21.952 457.667 22.72C456.323 23.44 455.483 23.968 455.147 24.304V22.864L454.427 17.464C454.859 17.272 455.795 16.96 457.235 16.528C458.675 16.048 460.571 15.616 462.923 15.232C465.275 14.8 468.035 14.584 471.203 14.584C477.251 14.584 481.667 15.88 484.451 18.472C487.235 21.016 488.627 24.952 488.627 30.28V44.68C488.627 46.024 488.771 47.008 489.059 47.632C489.395 48.208 489.731 48.664 490.067 49H481.283V46.84L481.427 45.472L481.283 45.4C479.699 46.84 477.635 47.92 475.091 48.64C472.547 49.36 469.667 49.72 466.451 49.72ZM468.827 44.608C472.715 44.608 475.763 44.056 477.971 42.952C480.179 41.8 481.283 40.36 481.283 38.632C481.283 37.192 480.323 35.968 478.403 34.96C476.531 33.952 473.603 33.448 469.619 33.448C465.923 33.448 463.307 33.928 461.771 34.888C460.283 35.848 459.539 37.288 459.539 39.208C459.539 41.08 460.259 42.448 461.699 43.312C463.187 44.176 465.563 44.608 468.827 44.608Z" fill="#6a6a6a"/>
<path d="M510.332 49.72C507.02 49.72 504.62 49.024 503.132 47.632C501.644 46.192 500.9 43.864 500.9 40.648V20.344H494.42V15.304C496.628 15.304 498.356 15.04 499.604 14.512C500.852 13.936 501.74 12.952 502.268 11.56C502.796 10.168 503.06 8.224 503.06 5.728H508.244V15.304H521.996C521.66 15.784 521.324 16.504 520.988 17.464C520.7 18.376 520.556 19.336 520.556 20.344H508.244V39.568C508.244 41.776 508.652 43.168 509.468 43.744C510.284 44.32 511.316 44.608 512.564 44.608C514.34 44.608 515.948 44.08 517.388 43.024C518.828 41.968 519.86 40.936 520.484 39.928V42.16L521.204 46.264C520.484 47.032 519.188 47.8 517.316 48.568C515.444 49.336 513.116 49.72 510.332 49.72Z" fill="#6a6a6a"/>
<path d="M544.107 49.72C540.315 49.72 537.195 49.288 534.747 48.424C532.299 47.512 530.379 46.264 528.987 44.68C527.595 43.096 526.611 41.248 526.035 39.136C525.507 37.024 525.243 34.72 525.243 32.224C525.243 26.8 526.779 22.504 529.851 19.336C532.971 16.168 537.579 14.584 543.675 14.584C547.227 14.584 550.083 15.064 552.243 16.024C554.451 16.984 556.107 18.256 557.211 19.84C558.363 21.424 559.131 23.152 559.515 25.024C559.947 26.848 560.163 28.648 560.163 30.424V33.808C560.163 33.664 559.491 33.52 558.147 33.376C556.851 33.184 554.643 33.088 551.523 33.088H532.587C532.587 36.64 533.643 39.448 535.755 41.512C537.867 43.576 541.011 44.608 545.187 44.608C548.787 44.608 551.739 44.176 554.043 43.312C556.395 42.4 557.955 41.512 558.723 40.648V42.088L559.443 46.84C558.387 47.464 556.515 48.112 553.827 48.784C551.187 49.408 547.947 49.72 544.107 49.72ZM535.467 28.336H552.963C552.963 27.088 552.699 25.792 552.171 24.448C551.643 23.104 550.707 21.976 549.363 21.064C548.019 20.104 546.123 19.624 543.675 19.624C540.555 19.624 538.059 20.368 536.187 21.856C534.363 23.344 533.451 25.024 533.451 26.896C533.451 27.376 533.595 27.736 533.883 27.976C534.171 28.216 534.699 28.336 535.467 28.336Z" fill="#6a6a6a"/>
<path d="M584.972 49.72C580.46 49.72 576.668 49.48 573.596 49C570.572 48.52 568.508 48.04 567.404 47.56V46.12L565.892 39.928C567.14 40.936 569.324 41.992 572.444 43.096C575.612 44.152 579.452 44.68 583.964 44.68C586.94 44.68 589.172 44.488 590.66 44.104C592.148 43.672 593.132 43.12 593.612 42.448C594.092 41.728 594.332 40.936 594.332 40.072C594.332 39.064 593.972 38.272 593.252 37.696C592.58 37.072 591.284 36.568 589.364 36.184C587.492 35.752 584.708 35.32 581.012 34.888C576.98 34.408 573.86 33.712 571.652 32.8C569.492 31.888 568.004 30.736 567.188 29.344C566.372 27.904 565.964 26.2 565.964 24.232C565.964 22.696 566.372 21.184 567.188 19.696C568.004 18.208 569.516 16.984 571.724 16.024C573.98 15.064 577.172 14.584 581.3 14.584C585.764 14.584 589.508 14.824 592.532 15.304C595.604 15.784 597.692 16.264 598.796 16.744V18.184L600.236 23.656C599.036 22.792 596.852 21.904 593.684 20.992C590.516 20.08 586.7 19.624 582.236 19.624C578.684 19.624 576.308 20.032 575.108 20.848C573.908 21.616 573.308 22.624 573.308 23.872C573.308 24.592 573.452 25.24 573.74 25.816C574.028 26.344 574.604 26.824 575.468 27.256C576.38 27.688 577.724 28.072 579.5 28.408C581.324 28.744 583.748 29.08 586.772 29.416C590.852 29.848 593.948 30.52 596.06 31.432C598.172 32.344 599.612 33.496 600.38 34.888C601.196 36.232 601.604 37.816 601.604 39.64C601.604 41.608 601.052 43.36 599.948 44.896C598.892 46.384 597.14 47.56 594.692 48.424C592.244 49.288 589.004 49.72 584.972 49.72Z" fill="#6a6a6a"/>
<path d="M25.143 139.72C16.887 139.72 10.695 137.944 6.56702 134.392C2.48702 130.792 0.447021 125.128 0.447021 117.4C0.447021 112.936 1.28702 109.048 2.96702 105.736C4.64702 102.376 7.31102 99.76 10.959 97.888C14.607 96.016 19.335 95.08 25.143 95.08C29.703 95.08 33.495 95.32 36.519 95.8C39.543 96.28 41.583 96.76 42.639 97.24V98.68L44.079 105.16C42.735 104.2 40.407 103.24 37.095 102.28C33.783 101.32 29.847 100.84 25.287 100.84C21.015 100.84 17.655 101.56 15.207 103C12.759 104.392 11.031 106.336 10.023 108.832C9.01502 111.328 8.51102 114.184 8.51102 117.4C8.51102 120.616 9.01502 123.472 10.023 125.968C11.079 128.416 12.951 130.36 15.639 131.8C18.375 133.192 22.287 133.888 27.375 133.888C31.503 133.888 34.935 133.408 37.671 132.448C40.455 131.44 42.351 130.48 43.359 129.568V131.728L44.079 136.12C43.263 136.888 41.271 137.68 38.103 138.496C34.983 139.312 30.663 139.72 25.143 139.72Z" fill="#6a6a6a"/>
<path d="M64.0523 139.72C58.8203 139.72 55.1483 138.784 53.0363 136.912C50.9243 134.992 49.8683 132.424 49.8683 129.208C49.8683 125.848 51.1403 123.208 53.6843 121.288C56.2283 119.368 60.1163 118.408 65.3483 118.408C69.0923 118.408 72.0923 118.792 74.3483 119.56C76.6043 120.28 78.1163 120.904 78.8843 121.432C78.8363 117.16 78.0203 114.136 76.4363 112.36C74.9003 110.536 72.1643 109.624 68.2283 109.624C65.3963 109.624 62.8523 109.96 60.5963 110.632C58.3883 111.256 56.6123 111.952 55.2683 112.72C53.9243 113.44 53.0843 113.968 52.7483 114.304V112.864L52.0283 107.464C52.4603 107.272 53.3963 106.96 54.8363 106.528C56.2763 106.048 58.1723 105.616 60.5243 105.232C62.8763 104.8 65.6363 104.584 68.8043 104.584C74.8523 104.584 79.2683 105.88 82.0523 108.472C84.8363 111.016 86.2283 114.952 86.2283 120.28V134.68C86.2283 136.024 86.3723 137.008 86.6603 137.632C86.9963 138.208 87.3323 138.664 87.6683 139H78.8843V136.84L79.0283 135.472L78.8843 135.4C77.3003 136.84 75.2363 137.92 72.6923 138.64C70.1483 139.36 67.2683 139.72 64.0523 139.72ZM66.4283 134.608C70.3163 134.608 73.3643 134.056 75.5723 132.952C77.7803 131.8 78.8843 130.36 78.8843 128.632C78.8843 127.192 77.9243 125.968 76.0043 124.96C74.1323 123.952 71.2043 123.448 67.2203 123.448C63.5243 123.448 60.9083 123.928 59.3723 124.888C57.8843 125.848 57.1403 127.288 57.1403 129.208C57.1403 131.08 57.8603 132.448 59.3003 133.312C60.7883 134.176 63.1643 134.608 66.4283 134.608Z" fill="#6a6a6a"/>
<path d="M94.182 139C94.518 139 94.83 138.664 95.118 137.992C95.454 137.32 95.622 136.216 95.622 134.68V93.64C95.622 92.104 95.454 91.024 95.118 90.4C94.83 89.728 94.518 89.368 94.182 89.32C96.294 89.32 98.118 89.176 99.654 88.888C101.238 88.552 102.342 88.216 102.966 87.88V134.68C102.966 136.216 103.11 137.32 103.398 137.992C103.734 138.664 104.07 139 104.406 139H94.182Z" fill="#6a6a6a"/>
<path d="M111.62 139C111.956 139 112.268 138.664 112.556 137.992C112.892 137.32 113.06 136.216 113.06 134.68V93.64C113.06 92.104 112.892 91.024 112.556 90.4C112.268 89.728 111.956 89.368 111.62 89.32C113.732 89.32 115.556 89.176 117.092 88.888C118.676 88.552 119.78 88.216 120.404 87.88V134.68C120.404 136.216 120.548 137.32 120.836 137.992C121.172 138.664 121.508 139 121.844 139H111.62Z" fill="#6a6a6a"/>
<path d="M160.25 145.48C160.25 144.952 160.394 144.4 160.682 143.824C161.018 143.296 161.33 142.888 161.618 142.6H160.898C159.938 142.6 158.834 142.144 157.586 141.232C156.338 140.32 155.114 138.856 153.914 136.84C152.762 134.824 151.802 132.232 151.034 129.064C150.266 125.848 149.882 121.984 149.882 117.472C149.882 112.912 150.266 109.072 151.034 105.952C151.802 102.832 152.762 100.336 153.914 98.464C155.114 96.544 156.338 95.152 157.586 94.288C158.834 93.424 159.938 92.992 160.898 92.992H161.618C161.33 92.752 161.018 92.368 160.682 91.84C160.394 91.312 160.25 90.736 160.25 90.112C159.53 90.112 158.546 90.4 157.298 90.976C156.098 91.552 154.778 92.488 153.338 93.784C151.898 95.032 150.53 96.712 149.234 98.824C147.986 100.936 146.954 103.528 146.138 106.6C145.322 109.672 144.914 113.296 144.914 117.472C144.914 121.648 145.322 125.296 146.138 128.416C146.954 131.536 147.986 134.2 149.234 136.408C150.53 138.568 151.898 140.296 153.338 141.592C154.778 142.936 156.098 143.92 157.298 144.544C158.546 145.168 159.53 145.48 160.25 145.48Z" fill="#6a6a6a"/>
<path d="M184.224 139.72C180.096 139.72 176.664 139.144 173.928 137.992C171.24 136.84 169.248 135.28 167.952 133.312C166.656 131.344 166.008 129.112 166.008 126.616C166.008 124.024 166.824 121.768 168.456 119.848C170.136 117.928 172.44 116.512 175.368 115.6V115.456C173.352 114.496 171.768 113.248 170.616 111.712C169.464 110.176 168.888 108.496 168.888 106.672C168.888 104.704 169.416 102.856 170.472 101.128C171.528 99.352 173.184 97.912 175.44 96.808C177.696 95.704 180.624 95.152 184.224 95.152H186.456C190.056 95.152 192.96 95.704 195.168 96.808C197.424 97.912 199.08 99.352 200.136 101.128C201.192 102.856 201.72 104.704 201.72 106.672C201.72 108.496 201.072 110.2 199.776 111.784C198.48 113.368 196.92 114.568 195.096 115.384V115.528C198.168 116.488 200.52 117.928 202.152 119.848C203.784 121.768 204.6 124.024 204.6 126.616C204.6 129.016 203.928 131.224 202.584 133.24C201.24 135.208 199.224 136.792 196.536 137.992C193.848 139.144 190.488 139.72 186.456 139.72H184.224ZM185.088 112.792H185.88C191.064 112.792 193.656 110.872 193.656 107.032C193.656 105.16 193.032 103.672 191.784 102.568C190.536 101.464 188.568 100.912 185.88 100.912H185.088C179.664 100.912 176.952 102.952 176.952 107.032C176.952 109.048 177.672 110.512 179.112 111.424C180.552 112.336 182.544 112.792 185.088 112.792ZM185.088 133.888H185.88C189.48 133.888 192.144 133.24 193.872 131.944C195.648 130.6 196.536 128.704 196.536 126.256C196.536 123.808 195.552 121.912 193.584 120.568C191.616 119.224 189.048 118.552 185.88 118.552H185.088C181.824 118.552 179.16 119.248 177.096 120.64C175.08 121.984 174.072 123.856 174.072 126.256C174.072 128.656 175.032 130.528 176.952 131.872C178.872 133.216 181.584 133.888 185.088 133.888Z" fill="#6a6a6a"/>
<path d="M229.994 139.72C225.914 139.72 222.338 138.904 219.266 137.272C216.194 135.592 213.818 133.024 212.138 129.568C210.458 126.112 209.618 121.72 209.618 116.392C209.618 109.576 211.538 104.32 215.378 100.624C219.218 96.928 224.57 95.08 231.434 95.08C235.418 95.08 238.778 95.416 241.514 96.088C244.298 96.76 246.218 97.432 247.274 98.104L245.834 103.864V105.304C244.778 104.344 242.978 103.384 240.434 102.424C237.938 101.464 234.914 100.984 231.362 100.984C228.722 100.984 226.346 101.512 224.234 102.568C222.17 103.624 220.538 105.352 219.338 107.752C218.138 110.152 217.538 113.344 217.538 117.328L217.682 117.4C217.922 117.016 218.378 116.464 219.05 115.744C219.722 114.976 220.634 114.208 221.786 113.44C222.986 112.624 224.45 111.952 226.178 111.424C227.906 110.848 229.922 110.56 232.226 110.56C237.65 110.56 241.658 111.76 244.25 114.16C246.89 116.512 248.21 120.16 248.21 125.104C248.21 127.504 247.682 129.832 246.626 132.088C245.618 134.296 243.89 136.12 241.442 137.56C239.042 139 235.73 139.72 231.506 139.72H229.994ZM229.49 133.888C233.33 133.888 236.066 133.096 237.698 131.512C239.33 129.88 240.146 127.624 240.146 124.744C240.146 121.768 239.306 119.632 237.626 118.336C235.994 116.992 233.498 116.32 230.138 116.32C226.682 116.32 223.97 117.136 222.002 118.768C220.082 120.4 219.122 122.56 219.122 125.248C219.122 127.888 219.962 130 221.642 131.584C223.37 133.12 225.986 133.888 229.49 133.888Z" fill="#6a6a6a"/>
<path d="M274.433 139.72C269.441 139.72 265.145 139.408 261.545 138.784C257.945 138.112 255.425 137.464 253.985 136.84L255.425 129.856V128.416C256.145 129.184 257.297 130 258.881 130.864C260.513 131.728 262.529 132.472 264.929 133.096C267.329 133.672 270.065 133.96 273.137 133.96C277.265 133.96 280.193 133.264 281.921 131.872C283.649 130.432 284.513 128.32 284.513 125.536C284.513 120.208 280.457 117.544 272.345 117.544C268.265 117.544 264.905 117.712 262.265 118.048C259.625 118.336 257.825 118.648 256.865 118.984V95.8H288.689V97.24L290.129 103C289.601 102.664 288.161 102.352 285.809 102.064C283.457 101.728 280.145 101.56 275.873 101.56H264.929V109.912C264.929 110.968 265.049 111.592 265.289 111.784C265.529 111.976 266.369 112.072 267.809 112.072H274.433C280.721 112.072 285.305 113.2 288.185 115.456C291.113 117.664 292.577 121.216 292.577 126.112C292.577 130.096 291.113 133.36 288.185 135.904C285.305 138.448 280.721 139.72 274.433 139.72Z" fill="#6a6a6a"/>
<path d="M299.073 145.48C299.073 144.952 298.905 144.4 298.569 143.824C298.281 143.296 297.993 142.888 297.705 142.6H298.425C299.385 142.6 300.489 142.144 301.737 141.232C302.985 140.32 304.185 138.856 305.337 136.84C306.537 134.824 307.521 132.232 308.289 129.064C309.057 125.848 309.441 121.984 309.441 117.472C309.441 112.912 309.057 109.072 308.289 105.952C307.521 102.832 306.537 100.336 305.337 98.464C304.185 96.544 302.985 95.152 301.737 94.288C300.489 93.424 299.385 92.992 298.425 92.992H297.705C297.993 92.752 298.281 92.368 298.569 91.84C298.905 91.312 299.073 90.736 299.073 90.112C299.793 90.112 300.753 90.4 301.953 90.976C303.201 91.552 304.545 92.488 305.985 93.784C307.425 95.032 308.769 96.712 310.017 98.824C311.313 100.936 312.369 103.528 313.185 106.6C314.001 109.672 314.409 113.296 314.409 117.472C314.409 121.648 314.001 125.296 313.185 128.416C312.369 131.536 311.313 134.2 310.017 136.408C308.769 138.568 307.425 140.296 305.985 141.592C304.545 142.936 303.201 143.92 301.953 144.544C300.753 145.168 299.793 145.48 299.073 145.48Z" fill="#6a6a6a"/>
<path d="M355.031 139.72C350.135 139.72 346.127 139.408 343.007 138.784C339.887 138.112 337.799 137.464 336.743 136.84L338.255 129.856V128.416C338.927 129.184 339.959 130 341.351 130.864C342.743 131.728 344.471 132.472 346.535 133.096C348.647 133.672 351.047 133.96 353.735 133.96C357.623 133.96 360.359 133.312 361.943 132.016C363.575 130.72 364.391 128.92 364.391 126.616C364.391 124.408 363.503 122.752 361.727 121.648C359.951 120.496 357.023 119.92 352.943 119.92H346.823V114.52H352.943C356.063 114.52 358.271 113.824 359.567 112.432C360.863 110.992 361.511 109.024 361.511 106.528C361.511 102.736 359.135 100.84 354.383 100.84C352.127 100.84 349.967 101.2 347.903 101.92C345.887 102.64 344.111 103.528 342.575 104.584C341.039 105.592 339.815 106.576 338.903 107.536V106.096L337.463 99.4C338.567 98.44 340.583 97.48 343.511 96.52C346.439 95.56 350.015 95.08 354.239 95.08C358.271 95.08 361.391 95.536 363.599 96.448C365.807 97.36 367.343 98.632 368.207 100.264C369.119 101.896 369.575 103.792 369.575 105.952C369.575 108.448 368.831 110.584 367.343 112.36C365.903 114.136 364.055 115.48 361.799 116.392V116.536C365.255 117.304 367.895 118.528 369.719 120.208C371.543 121.888 372.455 124.192 372.455 127.12C372.455 129.52 371.879 131.68 370.727 133.6C369.575 135.52 367.703 137.032 365.111 138.136C362.567 139.192 359.207 139.72 355.031 139.72Z" fill="#6a6a6a"/>
<path d="M401.988 139C402.324 139 402.636 138.664 402.924 137.992C403.26 137.32 403.428 136.216 403.428 134.68V130.72H376.068C376.404 130 377.268 128.68 378.66 126.76C379.38 125.752 380.412 124.336 381.756 122.512C383.1 120.688 384.588 118.624 386.22 116.32C387.852 114.016 389.46 111.664 391.044 109.264C392.676 106.864 394.116 104.608 395.364 102.496C396.9 100 397.836 98.248 398.172 97.24C398.508 96.232 398.556 95.752 398.316 95.8H413.004C412.668 95.8 412.332 96.136 411.996 96.808C411.708 97.48 411.564 98.608 411.564 100.192L411.492 124.96H412.284C415.116 124.96 417.372 124.792 419.052 124.456C420.78 124.12 421.884 123.784 422.364 123.448L420.924 129.28V130.72H411.492V134.68C411.492 136.216 411.66 137.32 411.996 137.992C412.332 138.664 412.668 139 413.004 139H401.988ZM387.084 124.96H403.428V100.192H403.284C402.564 101.728 401.532 103.648 400.188 105.952C398.844 108.208 397.356 110.56 395.724 113.008C394.14 115.408 392.58 117.664 391.044 119.776C389.508 121.888 388.188 123.544 387.084 124.744V124.96Z" fill="#6a6a6a"/>
<path d="M446.418 139.72C441.426 139.72 437.13 139.408 433.53 138.784C429.93 138.112 427.41 137.464 425.97 136.84L427.41 129.856V128.416C428.13 129.184 429.282 130 430.866 130.864C432.498 131.728 434.514 132.472 436.914 133.096C439.314 133.672 442.05 133.96 445.122 133.96C449.25 133.96 452.178 133.264 453.906 131.872C455.634 130.432 456.498 128.32 456.498 125.536C456.498 120.208 452.442 117.544 444.33 117.544C440.25 117.544 436.89 117.712 434.25 118.048C431.61 118.336 429.81 118.648 428.85 118.984V95.8H460.674V97.24L462.114 103C461.586 102.664 460.146 102.352 457.794 102.064C455.442 101.728 452.13 101.56 447.858 101.56H436.914V109.912C436.914 110.968 437.034 111.592 437.274 111.784C437.514 111.976 438.354 112.072 439.794 112.072H446.418C452.706 112.072 457.29 113.2 460.17 115.456C463.098 117.664 464.562 121.216 464.562 126.112C464.562 130.096 463.098 133.36 460.17 135.904C457.29 138.448 452.706 139.72 446.418 139.72Z" fill="#6a6a6a"/>
<path d="M469.617 124.6C469.953 124.072 470.265 123.328 470.553 122.368C470.889 121.408 471.057 120.472 471.057 119.56H485.169C487.617 119.56 489.393 119.488 490.497 119.344C491.649 119.152 492.273 118.984 492.369 118.84C492.033 119.32 491.697 120.04 491.361 121C491.073 121.912 490.929 122.872 490.929 123.88H478.257C475.617 123.88 473.601 123.976 472.209 124.168C470.817 124.312 469.953 124.456 469.617 124.6Z" fill="#6a6a6a"/>
<path d="M521.167 139C521.503 139 521.815 138.664 522.103 137.992C522.439 137.32 522.607 136.216 522.607 134.68V130.72H495.247C495.583 130 496.447 128.68 497.839 126.76C498.559 125.752 499.591 124.336 500.935 122.512C502.279 120.688 503.767 118.624 505.399 116.32C507.031 114.016 508.639 111.664 510.223 109.264C511.855 106.864 513.295 104.608 514.543 102.496C516.079 100 517.015 98.248 517.351 97.24C517.687 96.232 517.735 95.752 517.495 95.8H532.183C531.847 95.8 531.511 96.136 531.175 96.808C530.887 97.48 530.743 98.608 530.743 100.192L530.671 124.96H531.463C534.295 124.96 536.551 124.792 538.231 124.456C539.959 124.12 541.063 123.784 541.543 123.448L540.103 129.28V130.72H530.671V134.68C530.671 136.216 530.839 137.32 531.175 137.992C531.511 138.664 531.847 139 532.183 139H521.167ZM506.263 124.96H522.607V100.192H522.463C521.743 101.728 520.711 103.648 519.367 105.952C518.023 108.208 516.535 110.56 514.903 113.008C513.319 115.408 511.759 117.664 510.223 119.776C508.687 121.888 507.367 123.544 506.263 124.744V124.96Z" fill="#6a6a6a"/>
<path d="M568.91 139C569.246 139 569.558 138.664 569.846 137.992C570.182 137.32 570.35 136.216 570.35 134.68V130.72H542.99C543.326 130 544.19 128.68 545.582 126.76C546.302 125.752 547.334 124.336 548.678 122.512C550.022 120.688 551.51 118.624 553.142 116.32C554.774 114.016 556.382 111.664 557.966 109.264C559.598 106.864 561.038 104.608 562.286 102.496C563.822 100 564.758 98.248 565.094 97.24C565.43 96.232 565.478 95.752 565.238 95.8H579.926C579.59 95.8 579.254 96.136 578.918 96.808C578.63 97.48 578.486 98.608 578.486 100.192L578.414 124.96H579.206C582.038 124.96 584.294 124.792 585.974 124.456C587.702 124.12 588.806 123.784 589.286 123.448L587.846 129.28V130.72H578.414V134.68C578.414 136.216 578.582 137.32 578.918 137.992C579.254 138.664 579.59 139 579.926 139H568.91ZM554.006 124.96H570.35V100.192H570.206C569.486 101.728 568.454 103.648 567.11 105.952C565.766 108.208 564.278 110.56 562.646 113.008C561.062 115.408 559.502 117.664 557.966 119.776C556.43 121.888 555.11 123.544 554.006 124.744V124.96Z" fill="#6a6a6a"/>
<path d="M610.388 139.72C606.26 139.72 602.828 139.144 600.092 137.992C597.404 136.84 595.412 135.28 594.116 133.312C592.82 131.344 592.172 129.112 592.172 126.616C592.172 124.024 592.988 121.768 594.62 119.848C596.3 117.928 598.604 116.512 601.532 115.6V115.456C599.516 114.496 597.932 113.248 596.78 111.712C595.628 110.176 595.052 108.496 595.052 106.672C595.052 104.704 595.58 102.856 596.636 101.128C597.692 99.352 599.348 97.912 601.604 96.808C603.86 95.704 606.788 95.152 610.388 95.152H612.62C616.22 95.152 619.124 95.704 621.332 96.808C623.588 97.912 625.244 99.352 626.3 101.128C627.356 102.856 627.884 104.704 627.884 106.672C627.884 108.496 627.236 110.2 625.94 111.784C624.644 113.368 623.084 114.568 621.26 115.384V115.528C624.332 116.488 626.684 117.928 628.316 119.848C629.948 121.768 630.764 124.024 630.764 126.616C630.764 129.016 630.092 131.224 628.748 133.24C627.404 135.208 625.388 136.792 622.7 137.992C620.012 139.144 616.652 139.72 612.62 139.72H610.388ZM611.252 112.792H612.044C617.228 112.792 619.82 110.872 619.82 107.032C619.82 105.16 619.196 103.672 617.948 102.568C616.7 101.464 614.732 100.912 612.044 100.912H611.252C605.828 100.912 603.116 102.952 603.116 107.032C603.116 109.048 603.836 110.512 605.276 111.424C606.716 112.336 608.708 112.792 611.252 112.792ZM611.252 133.888H612.044C615.644 133.888 618.308 133.24 620.036 131.944C621.812 130.6 622.7 128.704 622.7 126.256C622.7 123.808 621.716 121.912 619.748 120.568C617.78 119.224 615.212 118.552 612.044 118.552H611.252C607.988 118.552 605.324 119.248 603.26 120.64C601.244 121.984 600.236 123.856 600.236 126.256C600.236 128.656 601.196 130.528 603.116 131.872C605.036 133.216 607.748 133.888 611.252 133.888Z" fill="#6a6a6a"/>
<path d="M653.278 139.72C649.15 139.72 645.718 139.144 642.982 137.992C640.294 136.84 638.302 135.28 637.006 133.312C635.71 131.344 635.062 129.112 635.062 126.616C635.062 124.024 635.878 121.768 637.51 119.848C639.19 117.928 641.494 116.512 644.422 115.6V115.456C642.406 114.496 640.822 113.248 639.67 111.712C638.518 110.176 637.942 108.496 637.942 106.672C637.942 104.704 638.47 102.856 639.526 101.128C640.582 99.352 642.238 97.912 644.494 96.808C646.75 95.704 649.678 95.152 653.278 95.152H655.51C659.11 95.152 662.014 95.704 664.222 96.808C666.478 97.912 668.134 99.352 669.19 101.128C670.246 102.856 670.774 104.704 670.774 106.672C670.774 108.496 670.126 110.2 668.83 111.784C667.534 113.368 665.974 114.568 664.15 115.384V115.528C667.222 116.488 669.574 117.928 671.206 119.848C672.838 121.768 673.654 124.024 673.654 126.616C673.654 129.016 672.982 131.224 671.638 133.24C670.294 135.208 668.278 136.792 665.59 137.992C662.902 139.144 659.542 139.72 655.51 139.72H653.278ZM654.142 112.792H654.934C660.118 112.792 662.71 110.872 662.71 107.032C662.71 105.16 662.086 103.672 660.838 102.568C659.59 101.464 657.622 100.912 654.934 100.912H654.142C648.718 100.912 646.006 102.952 646.006 107.032C646.006 109.048 646.726 110.512 648.166 111.424C649.606 112.336 651.598 112.792 654.142 112.792ZM654.142 133.888H654.934C658.534 133.888 661.198 133.24 662.926 131.944C664.702 130.6 665.59 128.704 665.59 126.256C665.59 123.808 664.606 121.912 662.638 120.568C660.67 119.224 658.102 118.552 654.934 118.552H654.142C650.878 118.552 648.214 119.248 646.15 120.64C644.134 121.984 643.126 123.856 643.126 126.256C643.126 128.656 644.086 130.528 646.006 131.872C647.926 133.216 650.638 133.888 654.142 133.888Z" fill="#6a6a6a"/>
</svg>